# xmcd CD database file
#
# Track frame offsets:
#	150
#	15911
#	28813
#	46614
#	69020
#	89536
#	104454
#	121319
#	139824
#	156111
#	172290
#	195862
#	212563
#	227216
#
# Disc length: 3338 seconds
#
# Revision: 0
# Processed by: cddbd v1.5.1PL0 Copyright (c) Steve Scherf et al.
# Submitted via: CDex 1.51
#
DISCID=b10d080e
DTITLE=Osmar Milito - Aos Amigos Tudos 
DYEAR=1900
DGENRE=Jazz
TTITLE0=Gafieira Esperta
TTITLE1=Tributo a meus pais (Ida e Migue)
TTITLE2=Floisa
TTITLE3=Comendo melancia com colher
TTITLE4=Soninha
TTITLE5=Mambucaba
TTITLE6=Joao Gabriel
TTITLE7=Boni na 17 Mile Drive
TTITLE8=Forro Brabo
TTITLE9=Calle Amberes (Mexico City)
TTITLE10=Aos Jobinianos Ricardo e Albano
TTITLE11=Lagoa (Lika e Robbi)
TTITLE12=Muito querer
TTITLE13=Trialogando
EXTD=
EXTT0=
EXTT1=
EXTT2=
EXTT3=
EXTT4=
EXTT5=
EXTT6=
EXTT7=
EXTT8=
EXTT9=
EXTT10=
EXTT11=
EXTT12=
EXTT13=
PLAYORDER=
